<svg width="463" height="591" viewBox="0 0 463 591" fill="none" xmlns="http://www.w3.org/2000/svg">
<path d="M74.5558 590.209L74.3551 588.543C74.8985 588.476 129.452 581.645 199.832 555.97C264.761 532.278 356.828 487.239 426.723 407.215L427.986 408.32C397.018 443.782 359.161 475.418 315.476 502.341C280.537 523.873 241.811 542.45 200.375 557.569C129.82 583.303 75.1159 590.151 74.5725 590.218L74.5558 590.209Z" fill="#A8B1BD"/>
<path d="M429.215 410.815L430.644 403.95L423.989 406.135L429.215 410.815Z" fill="#A8B1BD"/>
<path d="M131.467 3.3211H74.6393V4.99541H131.467V3.3211Z" fill="#A8B1BD"/>
<path d="M130.447 7.66594L136.508 4.15826L130.447 0.650574V7.66594Z" fill="#A8B1BD"/>
<path d="M185.531 73.1389L166.731 126.446L168.308 127.003L187.108 73.6964L185.531 73.1389Z" fill="#A8B1BD"/>
<path d="M164.567 124.6L165.846 131.49L171.171 126.936L164.567 124.6Z" fill="#A8B1BD"/>
<path d="M115.718 269.049L96.9175 322.356L98.4942 322.914L117.294 269.607L115.718 269.049Z" fill="#A8B1BD"/>
<path d="M94.7467 320.519L96.0259 327.409L101.352 322.855L94.7467 320.519Z" fill="#A8B1BD"/>
<path d="M46.0054 464.944L27.2081 518.243L28.7848 518.8L47.5821 465.501L46.0054 464.944Z" fill="#A8B1BD"/>
<path d="M25.0272 516.414L26.3148 523.304L31.6321 518.75L25.0272 516.414Z" fill="#A8B1BD"/>
<path d="M430.502 281.307C430.31 281.123 410.763 262.613 375.08 243.568C342.155 225.996 288.371 204.364 219.103 201.099L219.178 199.425C288.781 202.707 342.832 224.456 375.916 242.12C411.783 261.274 431.455 279.909 431.648 280.093L430.494 281.307H430.502Z" fill="#A8B1BD"/>
<path d="M220.349 196.855L214.112 200.053L219.989 203.862L220.349 196.855Z" fill="#A8B1BD"/>
<path d="M460.651 269.202C460.559 268.859 451.061 234.393 424.474 188.751C399.944 146.634 355.415 86.1075 282.644 36.958L283.58 35.5683C356.644 84.9103 401.332 145.671 425.954 187.956C452.641 233.782 462.181 268.415 462.273 268.758L460.659 269.193L460.651 269.202Z" fill="#A8B1BD"/>
<path d="M285.896 33.9945L278.915 33.4587L281.95 39.7792L285.896 33.9945Z" fill="#A8B1BD"/>
<path d="M43.3566 63.6662L42.0121 64.6617L94.6574 135.953L96.0019 134.957L43.3566 63.6662Z" fill="#A8B1BD"/>
<path d="M91.9041 136.705L98.3251 139.501L97.5392 132.528L91.9041 136.705Z" fill="#A8B1BD"/>
<path d="M40.3774 322.922C33.6721 303.676 0.229492 201.35 0.229492 76.9239H1.90162C1.90162 201.091 35.269 303.174 41.9575 322.378L40.3774 322.93V322.922Z" fill="#A8B1BD"/>
<path d="M37.5347 322.847L42.8688 327.393L44.1313 320.494L37.5347 322.847Z" fill="#A8B1BD"/>
</svg>
