<?xml version="1.0" encoding="UTF-8"?><svg xmlns="http://www.w3.org/2000/svg" viewBox="0 0 732 872"><g id="uuid-4bf53f88-b309-459e-af0e-9d4a5994df05"><g id="uuid-a75f7b4c-4c79-4497-9165-b8be4e95e1f7"><circle cx="85" cy="85" r="85" transform="translate(-35.21 85) rotate(-45)" style="fill:#7541ff;"/></g><g id="uuid-31ad7d41-e088-42c4-aa05-19b401a0b030"><circle cx="335" cy="85" r="85" transform="translate(38.02 261.78) rotate(-45)" style="fill:#7541ff;"/></g><g id="uuid-0c272c15-0975-4f01-91a5-dd3ad4464179"><circle cx="252" cy="319" r="85" transform="translate(-151.76 271.62) rotate(-45)" style="fill:#7541ff;"/></g><g id="uuid-cdaedbf8-73eb-4a3e-ab65-2c7dae9306ed"><circle cx="168" cy="553" r="85" transform="translate(-45.04 15.74) rotate(-4.73)" style="fill:#7541ff;"/></g><g id="uuid-4d51d4db-abe5-4ed7-b609-ce7f87c77f53"><circle cx="85" cy="787" r="85" transform="translate(-531.6 290.61) rotate(-45)" style="fill:#7541ff;"/></g><g id="uuid-72aab71b-7fd9-4491-95fd-b32e3f90517f"><circle cx="647" cy="489" r="85" transform="translate(-156.27 600.72) rotate(-45)" style="fill:#7541ff;"/></g><g id="uuid-b892b028-031f-4c2e-9740-548a37d55f1a"><circle cx="407" cy="516" r="85" transform="translate(-245.66 438.93) rotate(-45)" style="fill:#3aa655;"/></g></g><g id="uuid-a3077e7c-b348-432c-b2cf-042acb819f6f"><g id="uuid-5f7e692a-cc7d-4fbc-9ce9-a87f6e9a0ce6" style="isolation:isolate;"><path d="M405.85,424.67c-.03,.67-.03,1.34,0,2-48.76,.69-88.21,40.56-88.21,89.48s40.15,89.49,89.49,89.49,89.49-40.15,89.49-89.49c0-47.11-36.6-85.81-82.85-89.22,.06-.65,.09-1.33,.08-2,47.32,3.46,84.77,43.03,84.77,91.22,0,50.45-41.04,91.49-91.49,91.49s-91.49-41.04-91.49-91.49c0-50.02,40.35-90.78,90.2-91.48Z" style="fill:#3aa655;"/></g><g id="uuid-92a27744-c760-4090-9099-db0c2d26765d" style="isolation:isolate;"><g id="uuid-4ca6d396-1db5-444d-9480-7a20ac02def7"><polygon points="411 425.72 403.85 429.51 403.85 426.67 403.85 424.78 403.85 421.94 411 425.72" style="fill:#3aa655;"/></g></g><g id="uuid-fe4f5740-8b79-40bf-ad3c-6e7f86610194"><g><path d="M34.39,91.96c-1.65,0-3.05-.36-4.2-1.09-1.15-.73-2.03-1.74-2.63-3.04-.6-1.3-.9-2.79-.9-4.5s.3-3.2,.9-4.5c.6-1.3,1.48-2.31,2.63-3.04s2.55-1.09,4.2-1.09c1.92,0,3.49,.49,4.73,1.46s2.09,2.28,2.56,3.93l-2.08,.55c-.34-1.23-.94-2.21-1.81-2.92-.87-.71-2-1.07-3.4-1.07-1.23,0-2.26,.28-3.08,.84s-1.44,1.34-1.85,2.34c-.41,1-.62,2.16-.63,3.49,0,1.32,.2,2.48,.61,3.48,.41,1,1.04,1.78,1.86,2.35s1.86,.85,3.09,.85c1.4,0,2.54-.36,3.4-1.08,.87-.72,1.47-1.69,1.81-2.92l2.08,.55c-.47,1.64-1.32,2.95-2.56,3.93s-2.82,1.47-4.73,1.47Z" style="fill:#fff;"/><path d="M49.5,91.96c-1.23,0-2.3-.28-3.19-.84s-1.58-1.33-2.06-2.32c-.48-.99-.72-2.12-.72-3.4s.25-2.45,.74-3.43,1.18-1.75,2.08-2.29c.9-.55,1.95-.82,3.16-.82s2.31,.28,3.21,.83,1.58,1.33,2.06,2.31c.48,.98,.72,2.12,.72,3.4s-.24,2.44-.72,3.42c-.48,.99-1.17,1.76-2.07,2.31s-1.96,.83-3.2,.83Zm0-1.94c1.29,0,2.25-.43,2.88-1.29,.63-.86,.94-1.97,.94-3.33s-.32-2.52-.95-3.35-1.59-1.25-2.86-1.25c-.87,0-1.58,.2-2.14,.59-.56,.39-.98,.93-1.25,1.62-.28,.69-.41,1.49-.41,2.39,0,1.4,.32,2.52,.97,3.36s1.59,1.26,2.84,1.26Z" style="fill:#fff;"/><path d="M58.01,91.61v-12.42h1.84v3.32h.23v9.1h-2.07Zm8.85,0v-6.22c0-.59-.05-1.16-.16-1.7s-.28-1.03-.54-1.47-.6-.78-1.03-1.03c-.43-.25-.98-.38-1.64-.38-.51,0-.98,.09-1.4,.26-.42,.17-.78,.44-1.08,.79-.3,.35-.53,.8-.7,1.33-.17,.53-.25,1.16-.25,1.88l-1.35-.41c0-1.2,.22-2.24,.65-3.1,.43-.86,1.04-1.53,1.83-1.99,.79-.46,1.71-.7,2.78-.7,.81,0,1.49,.13,2.06,.38,.57,.25,1.04,.59,1.41,1.01,.38,.42,.67,.89,.89,1.4,.21,.52,.37,1.04,.45,1.58,.09,.53,.13,1.04,.13,1.51v6.87h-2.07Z" style="fill:#fff;"/><path d="M76.62,91.95c-1.48,0-2.69-.32-3.64-.97s-1.53-1.55-1.74-2.72l2.09-.33c.17,.67,.56,1.21,1.16,1.6,.61,.4,1.36,.59,2.25,.59s1.52-.18,2-.53c.48-.35,.72-.83,.72-1.44,0-.35-.08-.64-.24-.86-.16-.22-.49-.42-1-.62-.5-.19-1.26-.42-2.27-.69-1.1-.29-1.96-.59-2.59-.91-.63-.31-1.08-.68-1.35-1.09-.27-.41-.4-.92-.4-1.51,0-.73,.2-1.37,.6-1.92,.4-.55,.96-.97,1.67-1.27,.72-.3,1.55-.45,2.5-.45s1.79,.15,2.53,.45c.74,.3,1.34,.72,1.8,1.27,.46,.55,.73,1.19,.81,1.92l-2.09,.38c-.1-.67-.42-1.19-.96-1.58-.54-.38-1.24-.59-2.09-.61-.81-.03-1.46,.11-1.96,.43-.5,.31-.75,.74-.75,1.28,0,.3,.09,.56,.28,.77,.19,.21,.54,.42,1.05,.61,.51,.19,1.25,.41,2.23,.66,1.1,.28,1.96,.58,2.59,.9,.63,.33,1.08,.71,1.35,1.15,.27,.44,.4,.98,.4,1.63,0,1.2-.44,2.14-1.32,2.82-.88,.69-2.1,1.03-3.65,1.03Z" style="fill:#fff;"/><path d="M88.84,91.93c-.8,0-1.48-.13-2.05-.38s-1.04-.59-1.42-1.01c-.38-.42-.67-.89-.89-1.4-.21-.51-.37-1.04-.45-1.58-.09-.54-.13-1.04-.13-1.51v-6.87h2.07v6.22c0,.58,.05,1.15,.16,1.69,.11,.54,.29,1.03,.55,1.47,.26,.44,.6,.78,1.03,1.04s.98,.38,1.63,.38c.51,0,.98-.09,1.4-.26,.42-.18,.78-.44,1.08-.79,.3-.35,.53-.79,.69-1.33s.24-1.16,.24-1.87l1.35,.41c0,1.2-.22,2.23-.65,3.09-.43,.87-1.04,1.53-1.83,2-.79,.46-1.71,.7-2.78,.7Zm4.14-.32v-3.32h-.23v-9.1h2.06v12.42h-1.83Z" style="fill:#fff;"/><path d="M98.26,91.61v-16.9h2.05v16.9h-2.05Z" style="fill:#fff;"/><path d="M102.38,80.88v-1.69h8.31v1.69h-8.31Zm8.31,10.73c-.74,.15-1.46,.21-2.18,.18-.72-.03-1.36-.17-1.92-.44s-.98-.68-1.28-1.24c-.25-.49-.38-.99-.4-1.49-.02-.5-.03-1.07-.03-1.71v-11.18h2.05v11.09c0,.51,0,.94,.02,1.3,.01,.36,.09,.67,.24,.93,.28,.49,.71,.78,1.32,.86,.6,.08,1.33,.06,2.18-.07v1.76Z" style="fill:#fff;"/><path d="M113.45,77v-2.12h2.05v2.12h-2.05Zm0,14.62v-12.42h2.05v12.42h-2.05Z" style="fill:#fff;"/><path d="M118.94,91.61v-12.42h1.84v3.32h.23v9.1h-2.07Zm8.85,0v-6.22c0-.59-.05-1.16-.16-1.7s-.28-1.03-.54-1.47-.6-.78-1.04-1.03-.98-.38-1.64-.38c-.51,0-.98,.09-1.4,.26-.42,.17-.78,.44-1.08,.79-.3,.35-.53,.8-.7,1.33-.16,.53-.25,1.16-.25,1.88l-1.35-.41c0-1.2,.22-2.24,.65-3.1,.43-.86,1.04-1.53,1.83-1.99,.79-.46,1.71-.7,2.78-.7,.8,0,1.49,.13,2.06,.38,.57,.25,1.04,.59,1.41,1.01,.38,.42,.67,.89,.89,1.4,.21,.52,.37,1.04,.45,1.58,.09,.53,.13,1.04,.13,1.51v6.87h-2.07Z" style="fill:#fff;"/><path d="M137.73,91.96c-1.16,0-2.15-.29-2.98-.87-.83-.58-1.47-1.36-1.92-2.35-.45-.99-.67-2.1-.67-3.35s.22-2.36,.67-3.35c.45-.99,1.09-1.77,1.92-2.34,.83-.57,1.82-.86,2.97-.86s2.16,.28,2.96,.85,1.4,1.35,1.81,2.33c.41,.99,.62,2.11,.62,3.36s-.21,2.35-.62,3.34c-.41,.99-1.01,1.78-1.81,2.36-.8,.58-1.78,.87-2.94,.87Zm.15,5.52c-.65,0-1.29-.1-1.91-.3s-1.19-.5-1.71-.9c-.52-.4-.95-.91-1.29-1.52l1.87-.99c.31,.61,.74,1.05,1.31,1.32,.56,.28,1.14,.41,1.74,.41,.79,0,1.45-.14,1.97-.43,.52-.29,.91-.71,1.16-1.28,.25-.57,.37-1.27,.36-2.12v-3.39h.24v-9.08h1.82v12.5c0,.34,0,.66-.03,.98-.02,.31-.06,.62-.12,.93-.16,.88-.48,1.61-.95,2.18-.48,.57-1.09,1-1.84,1.28s-1.62,.42-2.61,.42Zm.1-7.39c.84,0,1.52-.2,2.06-.6,.54-.4,.93-.96,1.19-1.67,.26-.71,.39-1.52,.39-2.42s-.13-1.73-.39-2.43-.65-1.25-1.18-1.64c-.53-.39-1.2-.59-2.01-.59s-1.54,.21-2.09,.62c-.55,.41-.95,.97-1.22,1.68-.26,.71-.4,1.49-.4,2.37s.13,1.68,.4,2.39c.27,.71,.67,1.27,1.21,1.69s1.22,.62,2.03,.62Z" style="fill:#fff;"/></g></g><g id="uuid-13b15bb8-ffdf-4af7-831e-8151d9a6b7a6"><g><path d="M288.31,91.61l5.54-16.56h2.85l5.54,16.56h-2.13l-5.19-15.36h.64l-5.14,15.36h-2.13Zm2.67-3.88v-1.92h8.6v1.92h-8.6Z" style="fill:#fff;"/><path d="M309.01,91.95c-1.48,0-2.69-.32-3.64-.97s-1.53-1.55-1.74-2.72l2.09-.33c.17,.67,.56,1.21,1.16,1.6,.61,.4,1.36,.59,2.25,.59s1.52-.18,2-.53,.72-.83,.72-1.44c0-.35-.08-.64-.24-.86-.16-.22-.49-.42-.99-.62-.5-.19-1.26-.42-2.27-.69-1.1-.29-1.96-.59-2.59-.91-.63-.31-1.08-.68-1.35-1.09-.27-.41-.4-.92-.4-1.51,0-.73,.2-1.37,.6-1.92,.4-.55,.96-.97,1.67-1.27,.72-.3,1.55-.45,2.5-.45s1.79,.15,2.53,.45c.74,.3,1.34,.72,1.8,1.27,.46,.55,.73,1.19,.81,1.92l-2.09,.38c-.1-.67-.42-1.19-.96-1.58-.54-.38-1.24-.59-2.09-.61-.81-.03-1.46,.11-1.96,.43-.5,.31-.75,.74-.75,1.28,0,.3,.09,.56,.28,.77,.19,.21,.54,.42,1.05,.61,.51,.19,1.25,.41,2.23,.66,1.1,.28,1.96,.58,2.59,.9,.63,.33,1.08,.71,1.35,1.15,.27,.44,.4,.98,.4,1.63,0,1.2-.44,2.14-1.32,2.82s-2.1,1.03-3.65,1.03Z" style="fill:#fff;"/><path d="M321.21,91.95c-1.48,0-2.69-.32-3.64-.97-.95-.65-1.53-1.55-1.74-2.72l2.09-.33c.17,.67,.56,1.21,1.16,1.6,.61,.4,1.36,.59,2.25,.59s1.52-.18,2-.53,.72-.83,.72-1.44c0-.35-.08-.64-.24-.86-.16-.22-.49-.42-.99-.62-.5-.19-1.26-.42-2.27-.69-1.1-.29-1.96-.59-2.59-.91-.63-.31-1.08-.68-1.35-1.09-.27-.41-.4-.92-.4-1.51,0-.73,.2-1.37,.6-1.92,.4-.55,.96-.97,1.67-1.27,.72-.3,1.55-.45,2.5-.45s1.79,.15,2.53,.45c.74,.3,1.34,.72,1.8,1.27,.46,.55,.73,1.19,.81,1.92l-2.09,.38c-.1-.67-.42-1.19-.96-1.58-.54-.38-1.24-.59-2.09-.61-.8-.03-1.46,.11-1.96,.43-.5,.31-.75,.74-.75,1.28,0,.3,.09,.56,.28,.77,.19,.21,.54,.42,1.05,.61,.51,.19,1.25,.41,2.23,.66,1.1,.28,1.96,.58,2.59,.9,.63,.33,1.08,.71,1.35,1.15,.27,.44,.4,.98,.4,1.63,0,1.2-.44,2.14-1.32,2.82-.88,.69-2.1,1.03-3.65,1.03Z" style="fill:#fff;"/><path d="M332.25,91.96c-.93,0-1.7-.17-2.33-.51-.62-.34-1.1-.79-1.41-1.35-.32-.56-.48-1.17-.48-1.84s.12-1.22,.37-1.7c.25-.48,.6-.88,1.05-1.2,.45-.32,.99-.57,1.62-.75,.59-.16,1.25-.3,1.98-.42,.73-.12,1.47-.23,2.23-.33,.75-.1,1.45-.2,2.1-.29l-.74,.43c.02-1.1-.2-1.92-.66-2.45s-1.26-.79-2.4-.79c-.75,0-1.41,.17-1.97,.51-.56,.34-.96,.9-1.19,1.66l-1.94-.59c.3-1.09,.88-1.94,1.74-2.56,.86-.62,1.99-.93,3.39-.93,1.13,0,2.1,.2,2.9,.6,.81,.4,1.39,1.01,1.74,1.82,.18,.38,.29,.8,.33,1.25,.05,.45,.07,.92,.07,1.41v7.68h-1.82v-2.98l.43,.28c-.47,1-1.12,1.76-1.96,2.28-.84,.51-1.86,.77-3.06,.77Zm.31-1.71c.74,0,1.37-.13,1.91-.4,.54-.26,.98-.61,1.31-1.05s.54-.91,.64-1.42c.12-.38,.18-.81,.19-1.28,.01-.47,.02-.83,.02-1.09l.71,.31c-.67,.09-1.32,.18-1.97,.26s-1.25,.17-1.83,.27c-.57,.1-1.09,.21-1.55,.34-.34,.11-.65,.25-.95,.41-.3,.17-.53,.39-.71,.65-.18,.26-.27,.59-.27,.98,0,.34,.09,.66,.26,.97s.44,.56,.8,.75c.36,.19,.84,.29,1.43,.29Z" style="fill:#fff;"/><path d="M342.69,97.13l2.4-6.53,.03,1.93-5.43-13.34h2.15l4.25,10.73h-.74l3.99-10.73h2.08l-6.76,17.94h-1.99Z" style="fill:#fff;"/><path d="M353.57,77v-2.12h2.05v2.12h-2.05Zm0,14.62v-12.42h2.05v12.42h-2.05Z" style="fill:#fff;"/><path d="M359.06,91.61v-12.42h1.84v3.32h.23v9.1h-2.07Zm8.86,0v-6.22c0-.59-.05-1.16-.16-1.7s-.28-1.03-.54-1.47c-.26-.43-.6-.78-1.04-1.03s-.98-.38-1.64-.38c-.51,0-.98,.09-1.4,.26-.42,.17-.78,.44-1.08,.79s-.53,.8-.7,1.33c-.17,.53-.25,1.16-.25,1.88l-1.35-.41c0-1.2,.22-2.24,.65-3.1,.43-.86,1.04-1.53,1.83-1.99,.79-.46,1.71-.7,2.78-.7,.8,0,1.49,.13,2.06,.38,.57,.25,1.04,.59,1.41,1.01,.38,.42,.67,.89,.89,1.4,.21,.52,.37,1.04,.45,1.58,.09,.53,.13,1.04,.13,1.51v6.87h-2.07Z" style="fill:#fff;"/><path d="M377.85,91.96c-1.16,0-2.15-.29-2.98-.87-.83-.58-1.47-1.36-1.91-2.35-.45-.99-.67-2.1-.67-3.35s.22-2.36,.67-3.35c.45-.99,1.09-1.77,1.91-2.34,.83-.57,1.82-.86,2.97-.86s2.16,.28,2.96,.85,1.4,1.35,1.81,2.33c.41,.99,.62,2.11,.62,3.36s-.21,2.35-.62,3.34c-.41,.99-1.01,1.78-1.81,2.36-.8,.58-1.78,.87-2.94,.87Zm.15,5.52c-.65,0-1.29-.1-1.91-.3s-1.19-.5-1.71-.9c-.52-.4-.95-.91-1.29-1.52l1.87-.99c.31,.61,.74,1.05,1.31,1.32,.56,.28,1.14,.41,1.74,.41,.79,0,1.45-.14,1.97-.43,.52-.29,.91-.71,1.16-1.28,.25-.57,.37-1.27,.36-2.12v-3.39h.24v-9.08h1.82v12.5c0,.34,0,.66-.03,.98-.02,.31-.06,.62-.12,.93-.16,.88-.48,1.61-.95,2.18-.48,.57-1.09,1-1.84,1.28s-1.62,.42-2.61,.42Zm.1-7.39c.84,0,1.52-.2,2.06-.6s.93-.96,1.19-1.67c.26-.71,.39-1.52,.39-2.42s-.13-1.73-.39-2.43-.65-1.25-1.18-1.64c-.53-.39-1.2-.59-2.01-.59s-1.54,.21-2.09,.62c-.55,.41-.95,.97-1.22,1.68-.26,.71-.4,1.49-.4,2.37s.13,1.68,.4,2.39c.27,.71,.67,1.27,1.21,1.69s1.22,.62,2.03,.62Z" style="fill:#fff;"/></g></g><g id="uuid-bf68da41-a145-41cf-85ff-213dc6f82bef"><g><path d="M207.09,326.61v-16.56h6.54c.16,0,.35,0,.57,.02,.22,.01,.44,.04,.64,.08,.9,.14,1.65,.44,2.26,.92,.61,.48,1.07,1.08,1.37,1.8,.31,.72,.46,1.53,.46,2.41,0,1.28-.33,2.39-1,3.33-.67,.94-1.64,1.53-2.93,1.77l-.78,.13h-5.09v6.12h-2.05Zm2.05-8.06h4.43c.15,0,.31,0,.5-.02,.19-.02,.37-.04,.53-.08,.53-.12,.96-.35,1.29-.67,.33-.33,.58-.71,.73-1.15s.23-.89,.23-1.35-.08-.91-.23-1.35c-.15-.44-.4-.83-.73-1.16-.33-.33-.76-.55-1.29-.67-.17-.05-.35-.07-.53-.09-.19-.01-.35-.02-.5-.02h-4.43v6.56Zm7.81,8.06l-3.27-6.74,2.02-.62,3.59,7.36h-2.35Z" style="fill:#fff;"/><path d="M227.2,326.96c-1.22,0-2.28-.27-3.19-.81-.91-.54-1.62-1.3-2.12-2.27-.51-.97-.76-2.1-.76-3.4s.25-2.53,.75-3.52c.5-.99,1.19-1.76,2.09-2.3s1.94-.81,3.15-.81,2.31,.29,3.19,.86c.88,.57,1.54,1.4,1.98,2.46s.63,2.33,.57,3.81h-2.07v-.74c-.02-1.53-.33-2.67-.93-3.42-.6-.75-1.49-1.13-2.67-1.13-1.27,0-2.23,.41-2.89,1.22-.66,.81-.99,1.98-.99,3.5s.33,2.6,.99,3.4c.66,.81,1.6,1.21,2.82,1.21,.82,0,1.53-.19,2.14-.56,.61-.38,1.08-.92,1.43-1.62l1.97,.68c-.48,1.1-1.21,1.95-2.18,2.55-.97,.6-2.06,.9-3.26,.9Zm-4.59-5.98v-1.64h9.18v1.64h-9.18Z" style="fill:#fff;"/><path d="M234.48,315.88v-1.69h7.42v1.69h-7.42Zm2.1,10.73v-13.1c0-.32,.02-.65,.05-.98,.03-.33,.1-.66,.21-.98,.11-.32,.28-.61,.53-.88,.28-.31,.59-.54,.93-.67,.34-.13,.68-.22,1.03-.25,.35-.03,.68-.05,1-.05h1.58v1.7h-1.46c-.61,0-1.06,.15-1.36,.44-.3,.3-.45,.74-.45,1.34v13.42h-2.05Zm7.73-14.62v-2.12h2.05v2.12h-2.05Zm0,14.62v-12.42h2.05v12.42h-2.05Z" style="fill:#fff;"/><path d="M249.8,326.61v-12.42h1.84v3.32h.23v9.1h-2.07Zm8.85,0v-6.22c0-.59-.05-1.16-.16-1.7s-.28-1.03-.54-1.47c-.26-.43-.6-.78-1.04-1.03s-.98-.38-1.64-.38c-.51,0-.98,.09-1.4,.26-.42,.17-.78,.44-1.08,.79-.3,.35-.53,.8-.7,1.33-.17,.53-.25,1.16-.25,1.88l-1.35-.41c0-1.2,.22-2.24,.65-3.1,.43-.86,1.04-1.53,1.83-1.99,.79-.46,1.71-.7,2.78-.7,.8,0,1.49,.13,2.06,.38,.57,.25,1.04,.59,1.41,1.01,.38,.42,.67,.89,.89,1.4,.21,.52,.37,1.04,.45,1.58,.09,.53,.13,1.04,.13,1.51v6.87h-2.07Z" style="fill:#fff;"/><path d="M263.94,312v-2.12h2.05v2.12h-2.05Zm0,14.62v-12.42h2.05v12.42h-2.05Z" style="fill:#fff;"/><path d="M269.43,326.61v-12.42h1.84v3.32h.23v9.1h-2.07Zm8.85,0v-6.22c0-.59-.05-1.16-.16-1.7s-.28-1.03-.54-1.47-.6-.78-1.04-1.03-.98-.38-1.64-.38c-.51,0-.98,.09-1.4,.26-.42,.17-.78,.44-1.08,.79-.3,.35-.53,.8-.7,1.33-.17,.53-.25,1.16-.25,1.88l-1.35-.41c0-1.2,.22-2.24,.65-3.1,.43-.86,1.04-1.53,1.83-1.99,.79-.46,1.71-.7,2.78-.7,.81,0,1.49,.13,2.06,.38,.57,.25,1.04,.59,1.41,1.01,.38,.42,.67,.89,.89,1.4,.21,.52,.37,1.04,.45,1.58,.09,.53,.13,1.04,.13,1.51v6.87h-2.07Z" style="fill:#fff;"/><path d="M288.22,326.96c-1.16,0-2.15-.29-2.98-.87-.83-.58-1.47-1.36-1.92-2.35-.45-.99-.67-2.1-.67-3.35s.22-2.36,.67-3.35c.45-.99,1.09-1.77,1.92-2.34s1.82-.86,2.97-.86,2.16,.28,2.96,.85,1.4,1.35,1.81,2.33c.41,.99,.62,2.11,.62,3.36s-.21,2.35-.62,3.34c-.41,.99-1.01,1.78-1.81,2.36-.8,.58-1.78,.87-2.94,.87Zm.15,5.52c-.65,0-1.29-.1-1.91-.3-.62-.2-1.19-.5-1.71-.9-.52-.4-.95-.91-1.29-1.52l1.87-.99c.31,.61,.74,1.05,1.31,1.32,.56,.28,1.14,.41,1.74,.41,.79,0,1.44-.14,1.97-.43,.52-.29,.91-.71,1.16-1.28,.25-.57,.37-1.27,.36-2.12v-3.39h.24v-9.08h1.82v12.5c0,.34,0,.66-.03,.98-.02,.31-.06,.62-.12,.93-.16,.88-.48,1.61-.95,2.18-.48,.57-1.09,1-1.84,1.28s-1.62,.42-2.61,.42Zm.1-7.39c.84,0,1.52-.2,2.06-.6s.93-.96,1.19-1.67c.26-.71,.39-1.52,.39-2.42s-.13-1.73-.39-2.43-.65-1.25-1.18-1.64c-.53-.39-1.2-.59-2.01-.59s-1.54,.21-2.09,.62c-.55,.41-.95,.97-1.22,1.68-.26,.71-.4,1.49-.4,2.37s.13,1.68,.4,2.39c.27,.71,.67,1.27,1.21,1.69s1.22,.62,2.03,.62Z" style="fill:#fff;"/></g></g><g id="uuid-0e9522ae-5bee-493e-94d3-54d4fbb189c0"><g><path d="M132.87,559.61v-14.62h-5.65v-1.94h13.34v1.94h-5.65v14.62h-2.05Z" style="fill:#fff;"/><path d="M141.26,559.61v-12.42h1.83v3l-.3-.39c.15-.38,.34-.74,.57-1.06,.23-.32,.5-.59,.79-.79,.32-.26,.69-.46,1.09-.6,.41-.14,.82-.22,1.24-.25,.42-.03,.82,0,1.18,.09v1.92c-.43-.12-.9-.15-1.41-.09s-.99,.24-1.43,.56c-.4,.28-.71,.63-.93,1.04-.22,.41-.37,.85-.45,1.32-.08,.47-.13,.95-.13,1.44v6.23h-2.06Z" style="fill:#fff;"/><path d="M152.98,559.96c-.93,0-1.7-.17-2.33-.51-.62-.34-1.1-.79-1.41-1.35-.32-.56-.48-1.17-.48-1.84s.12-1.22,.37-1.7c.25-.48,.6-.88,1.05-1.2,.45-.32,.99-.57,1.62-.75,.59-.16,1.25-.3,1.98-.42,.73-.12,1.47-.23,2.23-.33,.75-.1,1.45-.2,2.1-.29l-.74,.42c.02-1.1-.2-1.92-.66-2.45s-1.26-.79-2.4-.79c-.75,0-1.41,.17-1.97,.51-.56,.34-.96,.9-1.19,1.66l-1.94-.59c.3-1.09,.88-1.94,1.74-2.57,.86-.62,1.99-.93,3.39-.93,1.13,0,2.09,.2,2.9,.6,.81,.4,1.39,1.01,1.74,1.82,.18,.38,.29,.8,.33,1.25s.07,.92,.07,1.41v7.68h-1.82v-2.98l.43,.28c-.47,1-1.12,1.76-1.96,2.28-.84,.51-1.86,.77-3.06,.77Zm.31-1.71c.74,0,1.37-.13,1.91-.4,.54-.26,.98-.61,1.31-1.05,.33-.43,.54-.91,.64-1.42,.12-.38,.18-.81,.19-1.28,.01-.47,.02-.83,.02-1.09l.71,.31c-.67,.09-1.32,.18-1.97,.26-.64,.08-1.25,.17-1.83,.27-.57,.1-1.09,.21-1.55,.34-.34,.11-.65,.25-.95,.41-.3,.17-.53,.39-.71,.65-.18,.26-.27,.59-.27,.98,0,.34,.09,.66,.26,.97s.44,.56,.81,.75c.36,.19,.84,.29,1.43,.29Z" style="fill:#fff;"/><path d="M167.26,559.96c-1.16,0-2.15-.29-2.98-.87-.83-.58-1.47-1.36-1.92-2.35-.45-.99-.67-2.1-.67-3.35s.22-2.36,.67-3.35c.45-.99,1.09-1.77,1.92-2.34,.83-.57,1.82-.86,2.97-.86s2.16,.28,2.96,.85,1.4,1.35,1.81,2.33c.41,.99,.62,2.11,.62,3.36s-.21,2.35-.62,3.34c-.41,.99-1.01,1.78-1.81,2.36-.8,.58-1.78,.87-2.94,.87Zm.25-1.87c.84,0,1.52-.2,2.06-.6,.54-.4,.93-.96,1.19-1.67s.39-1.52,.39-2.42-.13-1.73-.39-2.43c-.26-.7-.65-1.25-1.18-1.64-.53-.4-1.2-.59-2.01-.59s-1.54,.21-2.09,.62c-.55,.41-.95,.97-1.22,1.68-.26,.71-.4,1.5-.4,2.37s.13,1.68,.4,2.39,.67,1.27,1.21,1.68,1.22,.62,2.03,.62Zm3.63,1.53v-9.14h-.23v-7.42h2.06v16.56h-1.83Z" style="fill:#fff;"/><path d="M176.42,545v-2.12h2.05v2.12h-2.05Zm0,14.62v-12.42h2.05v12.42h-2.05Z" style="fill:#fff;"/><path d="M181.91,559.61v-12.42h1.84v3.32h.23v9.1h-2.07Zm8.85,0v-6.22c0-.59-.05-1.16-.16-1.7-.1-.54-.28-1.03-.54-1.47s-.6-.78-1.04-1.03-.98-.38-1.64-.38c-.51,0-.98,.09-1.4,.26-.42,.17-.78,.44-1.08,.79-.3,.35-.53,.8-.7,1.33-.17,.53-.25,1.16-.25,1.88l-1.35-.41c0-1.2,.22-2.24,.65-3.1s1.04-1.53,1.83-1.99c.79-.46,1.71-.7,2.78-.7,.81,0,1.49,.13,2.06,.38s1.04,.59,1.41,1.01c.38,.42,.67,.89,.89,1.4s.37,1.04,.45,1.58c.09,.53,.13,1.04,.13,1.51v6.87h-2.07Z" style="fill:#fff;"/><path d="M200.7,559.96c-1.16,0-2.15-.29-2.98-.87-.83-.58-1.47-1.36-1.92-2.35-.45-.99-.67-2.1-.67-3.35s.22-2.36,.67-3.35c.45-.99,1.09-1.77,1.92-2.34s1.82-.86,2.97-.86,2.16,.28,2.96,.85,1.4,1.35,1.81,2.33c.41,.99,.62,2.11,.62,3.36s-.21,2.35-.62,3.34c-.41,.99-1.01,1.78-1.81,2.36-.8,.58-1.78,.87-2.94,.87Zm.15,5.52c-.65,0-1.29-.1-1.91-.3-.62-.2-1.19-.5-1.71-.9s-.95-.91-1.29-1.52l1.87-.99c.31,.61,.74,1.05,1.31,1.32,.56,.28,1.14,.41,1.74,.41,.79,0,1.44-.14,1.97-.43,.52-.29,.91-.71,1.16-1.28s.37-1.27,.36-2.12v-3.39h.24v-9.08h1.82v12.5c0,.34,0,.66-.03,.98-.02,.31-.06,.62-.12,.93-.16,.88-.48,1.61-.95,2.18-.48,.57-1.09,1-1.84,1.28-.75,.28-1.62,.42-2.61,.42Zm.1-7.39c.84,0,1.52-.2,2.06-.6,.54-.4,.93-.96,1.19-1.67s.39-1.52,.39-2.42-.13-1.73-.39-2.43c-.26-.7-.65-1.25-1.18-1.64-.53-.4-1.2-.59-2.01-.59s-1.54,.21-2.09,.62c-.55,.41-.95,.97-1.22,1.68-.26,.71-.4,1.5-.4,2.37s.13,1.68,.4,2.39c.27,.71,.67,1.27,1.21,1.68s1.22,.62,2.03,.62Z" style="fill:#fff;"/></g></g><g id="uuid-cb020984-6cc8-4429-a1fb-bb2055d17473"><g><path d="M26.64,794.61v-16.56h9.66v2.05h-7.61v5.21h6.23v2.05h-6.23v7.26h-2.05Z" style="fill:#fff;"/><path d="M41.44,794.96c-.93,0-1.7-.17-2.33-.51s-1.1-.79-1.41-1.35c-.32-.56-.48-1.17-.48-1.84s.12-1.22,.37-1.7c.25-.48,.6-.88,1.05-1.2,.45-.32,.99-.57,1.62-.75,.59-.16,1.25-.3,1.98-.42,.73-.12,1.47-.23,2.23-.33s1.45-.2,2.1-.29l-.74,.42c.02-1.1-.2-1.92-.66-2.45s-1.26-.79-2.4-.79c-.75,0-1.41,.17-1.97,.51-.56,.34-.96,.9-1.19,1.66l-1.94-.59c.3-1.09,.88-1.94,1.74-2.57,.86-.62,1.99-.93,3.39-.93,1.13,0,2.09,.2,2.9,.6,.81,.4,1.39,1.01,1.74,1.82,.18,.38,.29,.8,.33,1.25s.07,.92,.07,1.41v7.68h-1.82v-2.98l.43,.28c-.47,1-1.12,1.76-1.96,2.28s-1.86,.77-3.06,.77Zm.31-1.71c.74,0,1.37-.13,1.92-.4,.54-.26,.98-.61,1.31-1.05,.33-.43,.54-.91,.64-1.42,.11-.38,.18-.81,.19-1.28,.01-.47,.02-.83,.02-1.09l.71,.31c-.67,.09-1.32,.18-1.97,.26-.64,.08-1.25,.17-1.83,.27-.58,.1-1.09,.21-1.55,.34-.34,.11-.65,.25-.95,.41-.29,.17-.53,.39-.71,.65s-.27,.59-.27,.98c0,.34,.09,.66,.26,.97,.17,.31,.44,.56,.8,.75,.36,.19,.84,.29,1.43,.29Z" style="fill:#fff;"/><path d="M50.84,794.61v-16.56h2.06v7.42h-.23v9.14h-1.83Zm5.72,.34c-1.17,0-2.15-.29-2.94-.87-.8-.58-1.4-1.36-1.81-2.36-.41-.99-.62-2.11-.62-3.34s.21-2.37,.62-3.36c.41-.99,1.02-1.77,1.82-2.33s1.78-.85,2.95-.85,2.14,.29,2.97,.86c.83,.57,1.47,1.35,1.91,2.34,.44,.99,.67,2.1,.67,3.35s-.22,2.36-.67,3.35c-.44,.99-1.08,1.77-1.91,2.35-.83,.58-1.83,.87-2.98,.87Zm-.25-1.87c.82,0,1.5-.21,2.04-.62s.94-.98,1.21-1.68c.27-.71,.4-1.5,.4-2.39s-.13-1.66-.4-2.37c-.26-.71-.67-1.26-1.22-1.68-.55-.41-1.24-.62-2.09-.62s-1.47,.2-2,.59c-.53,.39-.92,.94-1.18,1.64-.26,.7-.39,1.51-.39,2.43s.13,1.71,.39,2.42,.65,1.26,1.19,1.67c.54,.4,1.22,.6,2.06,.6Z" style="fill:#fff;"/><path d="M64.65,794.61v-12.42h1.83v3l-.3-.39c.15-.38,.34-.74,.57-1.06,.23-.32,.5-.59,.79-.79,.32-.26,.69-.46,1.09-.6,.41-.14,.82-.22,1.24-.25,.42-.03,.82,0,1.18,.09v1.92c-.43-.12-.9-.15-1.41-.09s-.99,.24-1.43,.56c-.4,.28-.71,.63-.93,1.04-.22,.41-.37,.85-.45,1.32-.08,.47-.13,.95-.13,1.44v6.23h-2.06Z" style="fill:#fff;"/><path d="M73.47,780v-2.12h2.05v2.12h-2.05Zm0,14.62v-12.42h2.05v12.42h-2.05Z" style="fill:#fff;"/><path d="M84.2,794.96c-1.26,0-2.33-.28-3.2-.84-.88-.56-1.55-1.34-2.01-2.33s-.7-2.12-.71-3.38c.02-1.3,.26-2.44,.73-3.42,.47-.99,1.15-1.75,2.03-2.31,.88-.55,1.94-.83,3.19-.83,1.31,0,2.44,.32,3.39,.97,.95,.64,1.58,1.53,1.9,2.64l-2.02,.61c-.26-.72-.68-1.28-1.27-1.68s-1.26-.6-2.02-.6c-.85,0-1.55,.2-2.1,.59-.55,.4-.96,.94-1.23,1.63-.27,.69-.41,1.49-.41,2.39,.02,1.38,.34,2.49,.96,3.34,.62,.85,1.55,1.27,2.79,1.27,.81,0,1.49-.19,2.02-.56s.94-.91,1.22-1.62l2.07,.54c-.43,1.16-1.1,2.04-2.01,2.66-.91,.61-2.01,.92-3.3,.92Z" style="fill:#fff;"/><path d="M95.29,794.96c-.93,0-1.7-.17-2.33-.51-.62-.34-1.1-.79-1.41-1.35-.32-.56-.48-1.17-.48-1.84s.12-1.22,.37-1.7c.25-.48,.6-.88,1.05-1.2,.45-.32,.99-.57,1.62-.75,.59-.16,1.25-.3,1.98-.42,.73-.12,1.47-.23,2.23-.33,.75-.1,1.45-.2,2.1-.29l-.74,.42c.02-1.1-.2-1.92-.66-2.45s-1.26-.79-2.4-.79c-.75,0-1.41,.17-1.97,.51-.56,.34-.96,.9-1.19,1.66l-1.94-.59c.3-1.09,.88-1.94,1.74-2.57,.86-.62,1.99-.93,3.39-.93,1.13,0,2.09,.2,2.9,.6,.81,.4,1.39,1.01,1.74,1.82,.18,.38,.29,.8,.33,1.25,.05,.45,.07,.92,.07,1.41v7.68h-1.82v-2.98l.43,.28c-.47,1-1.12,1.76-1.96,2.28-.84,.51-1.86,.77-3.06,.77Zm.31-1.71c.74,0,1.37-.13,1.91-.4,.54-.26,.98-.61,1.31-1.05,.33-.43,.54-.91,.64-1.42,.12-.38,.18-.81,.19-1.28,.01-.47,.02-.83,.02-1.09l.71,.31c-.67,.09-1.32,.18-1.97,.26-.64,.08-1.25,.17-1.83,.27-.57,.1-1.09,.21-1.55,.34-.34,.11-.65,.25-.95,.41-.3,.17-.53,.39-.71,.65-.18,.26-.27,.59-.27,.98,0,.34,.09,.66,.26,.97s.44,.56,.81,.75c.36,.19,.84,.29,1.43,.29Z" style="fill:#fff;"/><path d="M103.31,783.88v-1.69h8.31v1.69h-8.31Zm8.31,10.73c-.74,.15-1.46,.21-2.18,.18-.72-.03-1.35-.17-1.91-.44s-.99-.68-1.28-1.24c-.25-.49-.38-.99-.4-1.49s-.03-1.07-.03-1.71v-11.18h2.05v11.09c0,.51,0,.94,.02,1.3,.01,.36,.09,.67,.24,.93,.28,.49,.71,.78,1.32,.86s1.33,.06,2.18-.07v1.76Z" style="fill:#fff;"/><path d="M114.39,780v-2.12h2.05v2.12h-2.05Zm0,14.62v-12.42h2.05v12.42h-2.05Z" style="fill:#fff;"/><path d="M119.87,794.61v-12.42h1.84v3.32h.23v9.1h-2.07Zm8.85,0v-6.22c0-.59-.05-1.16-.16-1.7-.1-.54-.28-1.03-.54-1.47s-.6-.78-1.03-1.03c-.43-.25-.98-.38-1.64-.38-.51,0-.98,.09-1.4,.26-.42,.17-.78,.44-1.08,.79-.3,.35-.53,.8-.7,1.33-.17,.53-.25,1.16-.25,1.88l-1.35-.41c0-1.2,.22-2.24,.65-3.1,.43-.86,1.04-1.53,1.83-1.99,.79-.46,1.71-.7,2.78-.7,.81,0,1.49,.13,2.06,.38s1.04,.59,1.41,1.01c.38,.42,.67,.89,.89,1.4,.21,.52,.37,1.04,.45,1.58,.09,.53,.13,1.04,.13,1.51v6.87h-2.07Z" style="fill:#fff;"/><path d="M138.66,794.96c-1.16,0-2.15-.29-2.98-.87-.83-.58-1.47-1.36-1.91-2.35-.45-.99-.67-2.1-.67-3.35s.22-2.36,.67-3.35c.45-.99,1.09-1.77,1.91-2.34s1.82-.86,2.97-.86,2.16,.28,2.96,.85,1.4,1.35,1.81,2.33c.41,.99,.62,2.11,.62,3.36s-.21,2.35-.62,3.34c-.41,.99-1.01,1.78-1.81,2.36-.8,.58-1.78,.87-2.94,.87Zm.15,5.52c-.65,0-1.29-.1-1.91-.3-.62-.2-1.19-.5-1.71-.9s-.95-.91-1.29-1.52l1.87-.99c.31,.61,.74,1.05,1.31,1.32,.56,.28,1.14,.41,1.74,.41,.79,0,1.44-.14,1.97-.43,.52-.29,.91-.71,1.16-1.28s.37-1.27,.36-2.12v-3.39h.24v-9.08h1.82v12.5c0,.34,0,.66-.03,.98s-.06,.62-.12,.93c-.16,.88-.48,1.61-.95,2.18-.48,.57-1.09,1-1.84,1.28-.75,.28-1.62,.42-2.61,.42Zm.1-7.39c.84,0,1.52-.2,2.06-.6,.54-.4,.93-.96,1.19-1.67,.26-.71,.39-1.52,.39-2.42s-.13-1.73-.39-2.43c-.26-.7-.65-1.25-1.18-1.64-.53-.4-1.2-.59-2.01-.59s-1.54,.21-2.09,.62c-.55,.41-.95,.97-1.22,1.68-.26,.71-.4,1.5-.4,2.37s.13,1.68,.4,2.39c.27,.71,.67,1.27,1.21,1.68s1.22,.62,2.03,.62Z" style="fill:#fff;"/></g></g><g id="uuid-8319a85c-de3c-4fd9-b3f1-7070aef3928b"><g><path d="M623.18,468.4c-1.17,0-2.23-.2-3.17-.6-.94-.4-1.71-.97-2.32-1.71-.61-.74-1.01-1.62-1.19-2.63l2.12-.33c.27,1.04,.83,1.86,1.67,2.44,.85,.59,1.85,.88,3,.88,.74,0,1.42-.12,2.02-.35,.6-.23,1.08-.57,1.43-1.01,.35-.44,.53-.96,.53-1.55,0-.37-.06-.68-.19-.95s-.3-.49-.52-.68c-.22-.19-.47-.35-.74-.48-.28-.13-.56-.24-.86-.32l-4.22-1.25c-.46-.14-.9-.31-1.33-.52-.43-.21-.81-.48-1.15-.79s-.61-.7-.8-1.15c-.2-.45-.3-.98-.3-1.59,0-.98,.25-1.82,.77-2.51,.51-.69,1.2-1.23,2.08-1.59,.87-.37,1.86-.55,2.96-.54,1.11,0,2.11,.21,2.98,.59,.88,.39,1.61,.94,2.19,1.66,.58,.72,.97,1.58,1.17,2.59l-2.17,.38c-.11-.67-.37-1.25-.76-1.74-.4-.49-.89-.86-1.48-1.13s-1.24-.4-1.94-.41c-.67,0-1.28,.1-1.83,.32-.54,.22-.98,.53-1.3,.93-.32,.39-.48,.85-.48,1.36s.15,.92,.44,1.22c.29,.31,.65,.56,1.08,.74,.43,.18,.84,.33,1.25,.44l3.15,.91c.36,.1,.78,.24,1.25,.41,.47,.18,.93,.42,1.37,.74,.44,.32,.81,.74,1.1,1.27,.29,.53,.44,1.19,.44,1.98s-.16,1.51-.48,2.13c-.32,.62-.76,1.14-1.33,1.56s-1.23,.74-1.98,.96c-.75,.22-1.56,.33-2.42,.33Z" style="fill:#fff;"/><path d="M637.03,468.4c-1.26,0-2.33-.28-3.2-.84-.88-.56-1.55-1.34-2.01-2.33s-.7-2.12-.71-3.38c.02-1.3,.26-2.44,.73-3.42,.47-.99,1.15-1.75,2.03-2.31,.88-.55,1.94-.83,3.19-.83,1.31,0,2.44,.32,3.39,.97,.95,.64,1.58,1.53,1.9,2.64l-2.02,.61c-.26-.72-.68-1.28-1.27-1.68s-1.26-.6-2.02-.6c-.85,0-1.55,.2-2.1,.59-.55,.4-.96,.94-1.23,1.63-.27,.69-.41,1.49-.41,2.39,.02,1.38,.34,2.49,.96,3.34,.62,.85,1.55,1.27,2.79,1.27,.81,0,1.49-.19,2.02-.56s.94-.91,1.22-1.62l2.07,.54c-.43,1.16-1.1,2.04-2.01,2.66-.91,.61-2.01,.92-3.3,.92Z" style="fill:#fff;"/><path d="M644.7,468.05v-12.42h1.83v3l-.3-.39c.15-.38,.34-.74,.57-1.06,.23-.32,.5-.59,.79-.79,.32-.26,.69-.46,1.09-.6,.41-.14,.82-.22,1.24-.25,.42-.03,.82,0,1.18,.09v1.92c-.43-.12-.9-.15-1.41-.09-.51,.05-.99,.24-1.43,.56-.4,.28-.71,.63-.93,1.04-.22,.41-.37,.85-.45,1.32-.08,.47-.13,.95-.13,1.44v6.23h-2.06Z" style="fill:#fff;"/><path d="M656.42,468.4c-.93,0-1.7-.17-2.33-.51s-1.1-.79-1.41-1.35c-.32-.56-.48-1.17-.48-1.84s.12-1.22,.37-1.7c.25-.48,.6-.88,1.05-1.2,.45-.32,.99-.57,1.62-.75,.59-.16,1.25-.3,1.98-.42,.73-.12,1.47-.23,2.23-.33s1.45-.2,2.1-.29l-.74,.42c.02-1.1-.2-1.92-.66-2.45-.46-.53-1.26-.79-2.4-.79-.75,0-1.41,.17-1.97,.51-.56,.34-.96,.9-1.19,1.66l-1.94-.59c.3-1.09,.88-1.94,1.74-2.57,.86-.62,1.99-.93,3.39-.93,1.13,0,2.09,.2,2.9,.6,.81,.4,1.39,1.01,1.74,1.82,.18,.38,.29,.8,.33,1.25s.07,.92,.07,1.41v7.68h-1.82v-2.98l.43,.28c-.47,1-1.12,1.76-1.96,2.28s-1.86,.77-3.06,.77Zm.31-1.71c.74,0,1.37-.13,1.92-.4,.54-.26,.98-.61,1.31-1.05,.33-.43,.54-.91,.64-1.42,.11-.38,.18-.81,.19-1.28,.01-.47,.02-.83,.02-1.09l.71,.31c-.67,.09-1.32,.18-1.97,.26-.64,.08-1.25,.17-1.83,.27-.58,.1-1.09,.21-1.55,.34-.34,.11-.65,.25-.95,.41-.29,.17-.53,.39-.71,.65s-.27,.59-.27,.98c0,.34,.09,.66,.26,.97,.17,.31,.44,.56,.8,.75,.36,.19,.84,.29,1.43,.29Z" style="fill:#fff;"/><path d="M665.82,473.57v-17.94h1.83v9.14h.23v8.8h-2.06Zm5.72-5.17c-1.17,0-2.15-.29-2.94-.87-.8-.58-1.4-1.36-1.81-2.36-.41-.99-.62-2.11-.62-3.34s.21-2.37,.62-3.36c.41-.99,1.02-1.77,1.82-2.33s1.78-.85,2.95-.85,2.14,.29,2.97,.86c.83,.57,1.47,1.35,1.91,2.34,.44,.99,.67,2.1,.67,3.35s-.22,2.36-.67,3.35c-.44,.99-1.08,1.77-1.91,2.35-.83,.58-1.83,.87-2.98,.87Zm-.25-1.87c.82,0,1.5-.21,2.04-.62s.94-.98,1.21-1.68c.27-.71,.4-1.5,.4-2.39s-.13-1.66-.4-2.37c-.26-.71-.67-1.26-1.22-1.68-.55-.41-1.24-.62-2.09-.62s-1.47,.2-2,.59c-.53,.39-.92,.94-1.18,1.64-.26,.7-.39,1.51-.39,2.43s.13,1.71,.39,2.42,.65,1.26,1.19,1.67c.54,.4,1.22,.6,2.06,.6Z" style="fill:#fff;"/><path d="M622.24,496c-1.28,0-2.41-.26-3.39-.79s-1.75-1.27-2.31-2.23c-.56-.95-.83-2.08-.83-3.36v-10.51h2.07s0,10.34,0,10.34c0,.78,.13,1.46,.4,2.04,.26,.58,.62,1.06,1.05,1.44,.44,.38,.92,.67,1.44,.86,.52,.19,1.05,.28,1.57,.28s1.06-.1,1.59-.29c.53-.19,1.01-.48,1.44-.86,.43-.38,.78-.86,1.04-1.44,.26-.58,.39-1.26,.39-2.04v-10.35h2.07v10.52c0,1.28-.28,2.4-.83,3.36-.56,.96-1.32,1.7-2.31,2.23-.98,.53-2.11,.79-3.39,.79Z" style="fill:#fff;"/><path d="M631.99,495.65v-12.42h1.83v3l-.3-.39c.15-.38,.34-.74,.57-1.06s.5-.59,.79-.79c.32-.26,.69-.46,1.09-.6,.41-.14,.82-.22,1.24-.25,.42-.03,.82,0,1.18,.09v1.92c-.43-.12-.9-.15-1.41-.09-.51,.05-.99,.24-1.43,.56-.4,.28-.71,.63-.93,1.04-.22,.41-.37,.84-.45,1.32s-.13,.95-.13,1.44v6.23h-2.06Z" style="fill:#fff;"/><path d="M640.57,495.65v-16.56h2.06v7.42h-.23v9.14h-1.83Zm5.72,.35c-1.17,0-2.15-.29-2.94-.87-.8-.58-1.4-1.37-1.81-2.36-.41-.99-.62-2.11-.62-3.34s.21-2.37,.62-3.36,1.02-1.77,1.82-2.33c.8-.57,1.78-.85,2.95-.85s2.14,.29,2.97,.86c.83,.57,1.47,1.35,1.91,2.34,.44,.99,.67,2.1,.67,3.35s-.22,2.36-.67,3.35c-.44,.99-1.08,1.77-1.91,2.35-.83,.58-1.83,.87-2.98,.87Zm-.25-1.88c.82,0,1.5-.21,2.04-.62s.94-.98,1.21-1.68c.27-.71,.4-1.5,.4-2.39s-.13-1.66-.4-2.37c-.26-.71-.67-1.27-1.22-1.68-.55-.41-1.24-.62-2.09-.62s-1.47,.2-2,.59c-.53,.39-.92,.94-1.18,1.64s-.39,1.51-.39,2.43,.13,1.71,.39,2.42c.26,.71,.65,1.27,1.19,1.67s1.22,.6,2.06,.6Z" style="fill:#fff;"/><path d="M657.91,496c-.93,0-1.7-.17-2.33-.51-.62-.34-1.1-.79-1.41-1.35-.32-.56-.48-1.17-.48-1.84s.12-1.22,.37-1.7,.6-.88,1.05-1.2c.45-.32,.99-.57,1.62-.75,.59-.16,1.25-.3,1.98-.42,.73-.12,1.47-.23,2.23-.33,.75-.1,1.45-.2,2.1-.29l-.74,.43c.02-1.1-.2-1.92-.66-2.45-.46-.53-1.26-.79-2.4-.79-.75,0-1.41,.17-1.97,.51s-.96,.9-1.19,1.66l-1.94-.59c.3-1.09,.88-1.94,1.74-2.56,.86-.62,1.99-.93,3.39-.93,1.13,0,2.09,.2,2.9,.6,.81,.4,1.39,1.01,1.74,1.82,.18,.38,.29,.8,.33,1.25,.05,.45,.07,.92,.07,1.41v7.68h-1.82v-2.98l.43,.28c-.47,1-1.12,1.76-1.96,2.28s-1.86,.77-3.06,.77Zm.31-1.71c.74,0,1.37-.13,1.92-.4s.98-.61,1.31-1.05c.33-.43,.54-.91,.64-1.42,.11-.38,.18-.81,.19-1.28,.01-.47,.02-.83,.02-1.09l.71,.31c-.67,.09-1.32,.18-1.97,.26-.64,.08-1.25,.17-1.83,.27-.58,.1-1.09,.21-1.55,.34-.34,.11-.65,.25-.95,.41-.3,.17-.53,.38-.71,.65s-.27,.59-.27,.98c0,.34,.09,.66,.26,.97,.17,.31,.44,.56,.81,.75,.36,.19,.84,.29,1.43,.29Z" style="fill:#fff;"/><path d="M667.31,495.65v-12.42h1.84v3.32h.23v9.1h-2.07Zm8.85,0v-6.22c0-.59-.05-1.16-.16-1.7-.1-.54-.28-1.03-.54-1.47-.26-.43-.6-.78-1.03-1.03-.43-.25-.98-.38-1.64-.38-.51,0-.98,.09-1.4,.26-.42,.17-.78,.43-1.08,.79-.3,.35-.53,.8-.7,1.33-.17,.53-.25,1.16-.25,1.88l-1.35-.41c0-1.2,.22-2.24,.65-3.1,.43-.86,1.04-1.53,1.83-1.99,.79-.46,1.71-.7,2.78-.7,.81,0,1.49,.13,2.06,.38s1.04,.59,1.41,1.01c.38,.42,.67,.88,.89,1.4,.21,.52,.37,1.04,.45,1.58,.09,.53,.13,1.04,.13,1.51v6.87h-2.07Z" style="fill:#fff;"/><path d="M612.21,523.25v-16.56h1.86l6.26,13.19,6.22-13.19h1.89v16.55h-1.94v-12.05l-5.62,12.06h-1.09l-5.62-12.06v12.06h-1.94Z" style="fill:#fff;"/><path d="M631.89,508.64v-2.12h2.05v2.12h-2.05Zm0,14.62v-12.42h2.05v12.42h-2.05Z" style="fill:#fff;"/><path d="M637.38,523.25v-12.42h1.84v3.32h.23v9.1h-2.07Zm8.85,0v-6.22c0-.59-.05-1.16-.16-1.7-.1-.54-.28-1.03-.54-1.47-.26-.43-.6-.78-1.04-1.03s-.98-.38-1.64-.38c-.51,0-.98,.09-1.4,.26s-.78,.44-1.08,.79-.53,.79-.7,1.33-.25,1.16-.25,1.88l-1.35-.41c0-1.2,.22-2.24,.65-3.1,.43-.86,1.04-1.53,1.83-1.99,.79-.46,1.71-.7,2.78-.7,.81,0,1.49,.13,2.06,.38s1.04,.59,1.41,1.01,.67,.89,.89,1.4c.21,.52,.37,1.04,.45,1.58,.09,.53,.13,1.04,.13,1.51v6.87h-2.07Z" style="fill:#fff;"/><path d="M651.52,508.64v-2.12h2.05v2.12h-2.05Zm0,14.62v-12.42h2.05v12.42h-2.05Z" style="fill:#fff;"/><path d="M657.01,523.25v-12.42h1.84v3.32h.23v9.1h-2.07Zm8.85,0v-6.22c0-.59-.05-1.16-.16-1.7-.1-.54-.28-1.03-.54-1.47-.26-.43-.6-.78-1.04-1.03s-.98-.38-1.64-.38c-.51,0-.98,.09-1.4,.26s-.78,.44-1.08,.79c-.3,.35-.53,.79-.7,1.33-.16,.53-.25,1.16-.25,1.88l-1.35-.41c0-1.2,.22-2.24,.65-3.1,.43-.86,1.04-1.53,1.83-1.99,.79-.46,1.71-.7,2.78-.7,.8,0,1.49,.13,2.06,.38,.57,.25,1.04,.59,1.41,1.01,.38,.42,.67,.89,.89,1.4,.21,.52,.37,1.04,.45,1.58,.09,.53,.13,1.04,.13,1.51v6.87h-2.07Z" style="fill:#fff;"/><path d="M675.8,523.6c-1.16,0-2.15-.29-2.98-.87-.83-.58-1.47-1.36-1.92-2.35-.45-.99-.67-2.1-.67-3.35s.22-2.36,.67-3.35c.45-.99,1.09-1.77,1.92-2.34,.83-.57,1.82-.86,2.97-.86s2.16,.28,2.96,.85,1.4,1.35,1.81,2.33c.41,.99,.62,2.11,.62,3.36s-.21,2.35-.62,3.34-1.01,1.78-1.81,2.36-1.78,.87-2.94,.87Zm.15,5.52c-.65,0-1.29-.1-1.91-.3s-1.19-.5-1.71-.9-.95-.91-1.29-1.52l1.87-.99c.31,.61,.74,1.05,1.31,1.32,.56,.28,1.14,.41,1.74,.41,.79,0,1.45-.14,1.97-.43,.52-.29,.91-.71,1.16-1.28,.25-.57,.37-1.27,.36-2.12v-3.39h.24v-9.08h1.82v12.5c0,.34,0,.66-.03,.98-.02,.31-.06,.62-.12,.93-.16,.88-.48,1.61-.95,2.18-.48,.57-1.09,1-1.84,1.28-.75,.28-1.62,.42-2.61,.42Zm.1-7.39c.84,0,1.52-.2,2.06-.6,.54-.4,.93-.96,1.19-1.67s.39-1.52,.39-2.42-.13-1.73-.39-2.43c-.26-.7-.65-1.25-1.18-1.64-.53-.39-1.2-.59-2.01-.59s-1.54,.21-2.09,.62c-.55,.41-.95,.97-1.22,1.68-.26,.71-.4,1.5-.4,2.37s.13,1.68,.4,2.39c.27,.71,.67,1.27,1.21,1.69s1.22,.62,2.03,.62Z" style="fill:#fff;"/></g></g><g id="uuid-e6760b27-3849-4e2a-abd0-1bc78e972bcb"><g><path d="M357.92,515.61v-16.56h6.54c.16,0,.35,0,.57,.02s.44,.04,.64,.08c.9,.14,1.65,.44,2.26,.92s1.07,1.08,1.37,1.8c.31,.72,.46,1.53,.46,2.41,0,1.28-.33,2.39-1,3.33s-1.64,1.53-2.93,1.77l-.78,.13h-5.09v6.12h-2.05Zm2.05-8.06h4.43c.15,0,.31,0,.5-.02,.19-.01,.37-.04,.53-.08,.53-.12,.96-.35,1.29-.67,.33-.33,.58-.71,.73-1.15,.15-.44,.23-.89,.23-1.35s-.08-.91-.23-1.35c-.15-.44-.4-.83-.73-1.16-.33-.33-.77-.55-1.29-.67-.17-.05-.35-.08-.53-.09-.19-.01-.35-.02-.5-.02h-4.43v6.55Zm7.81,8.06l-3.27-6.74,2.02-.62,3.59,7.36h-2.35Z" style="fill:#fff;"/><path d="M378.04,515.96c-1.22,0-2.28-.27-3.19-.81-.91-.54-1.62-1.3-2.12-2.27s-.76-2.1-.76-3.4,.25-2.53,.75-3.52c.5-.99,1.19-1.76,2.09-2.3,.89-.54,1.94-.81,3.15-.81s2.31,.29,3.19,.86,1.54,1.4,1.98,2.46,.63,2.33,.57,3.81h-2.07v-.74c-.02-1.53-.33-2.67-.93-3.42s-1.49-1.13-2.67-1.13c-1.27,0-2.23,.41-2.89,1.22-.66,.81-.99,1.98-.99,3.5s.33,2.6,.99,3.4c.66,.8,1.6,1.21,2.82,1.21,.82,0,1.53-.19,2.14-.56,.61-.38,1.08-.92,1.43-1.62l1.97,.68c-.48,1.1-1.21,1.95-2.18,2.55s-2.06,.9-3.26,.9Zm-4.59-5.98v-1.64h9.18v1.64h-9.18Z" style="fill:#fff;"/><path d="M391.47,515.96c-1.26,0-2.33-.28-3.2-.84s-1.55-1.34-2.01-2.33-.7-2.12-.71-3.38c.02-1.3,.26-2.44,.73-3.42,.47-.99,1.15-1.75,2.03-2.31,.88-.55,1.94-.83,3.19-.83,1.31,0,2.44,.32,3.39,.97,.95,.64,1.58,1.53,1.9,2.64l-2.02,.61c-.26-.72-.68-1.28-1.27-1.68s-1.26-.6-2.02-.6c-.85,0-1.55,.2-2.1,.59-.55,.4-.96,.94-1.23,1.63-.27,.69-.41,1.49-.41,2.39,.02,1.38,.33,2.49,.96,3.34s1.55,1.27,2.79,1.27c.81,0,1.49-.19,2.02-.56s.94-.91,1.22-1.62l2.07,.54c-.43,1.16-1.1,2.04-2.01,2.66-.91,.61-2.01,.92-3.3,.92Z" style="fill:#fff;"/><path d="M400.4,521.13l2.4-6.53,.03,1.93-5.43-13.34h2.15l4.26,10.73h-.74l3.99-10.73h2.08l-6.76,17.94h-1.99Z" style="fill:#fff;"/><path d="M415.83,515.96c-1.26,0-2.33-.28-3.2-.84-.88-.56-1.55-1.34-2.01-2.33s-.7-2.12-.71-3.38c.02-1.3,.26-2.44,.73-3.42,.47-.99,1.15-1.75,2.03-2.31,.88-.55,1.94-.83,3.19-.83,1.31,0,2.44,.32,3.39,.97,.95,.64,1.58,1.53,1.9,2.64l-2.02,.61c-.26-.72-.68-1.28-1.27-1.68s-1.26-.6-2.02-.6c-.85,0-1.55,.2-2.1,.59-.55,.4-.96,.94-1.23,1.63-.27,.69-.41,1.49-.41,2.39,.02,1.38,.34,2.49,.96,3.34,.62,.85,1.55,1.27,2.79,1.27,.81,0,1.49-.19,2.02-.56s.94-.91,1.22-1.62l2.07,.54c-.43,1.16-1.1,2.04-2.01,2.66-.91,.61-2.01,.92-3.3,.92Z" style="fill:#fff;"/><path d="M423.38,515.61v-16.91h2.05v16.91h-2.05Z" style="fill:#fff;"/><path d="M429.11,501v-2.12h2.05v2.12h-2.05Zm0,14.62v-12.42h2.05v12.42h-2.05Z" style="fill:#fff;"/><path d="M434.59,515.61v-12.42h1.84v3.32h.23v9.1h-2.07Zm8.85,0v-6.22c0-.59-.05-1.16-.16-1.7-.1-.54-.28-1.03-.54-1.47s-.6-.78-1.04-1.03-.98-.38-1.64-.38c-.51,0-.98,.09-1.4,.26-.42,.17-.78,.44-1.08,.79-.3,.35-.53,.8-.7,1.33-.16,.53-.25,1.16-.25,1.88l-1.35-.41c0-1.2,.22-2.24,.65-3.1s1.04-1.53,1.83-1.99c.79-.46,1.71-.7,2.78-.7,.8,0,1.49,.13,2.06,.38,.57,.25,1.04,.59,1.41,1.01,.38,.42,.67,.89,.89,1.4,.21,.52,.37,1.04,.45,1.58,.09,.53,.13,1.04,.13,1.51v6.87h-2.07Z" style="fill:#fff;"/><path d="M453.38,515.96c-1.16,0-2.15-.29-2.98-.87-.83-.58-1.47-1.36-1.92-2.35-.45-.99-.67-2.1-.67-3.35s.22-2.36,.67-3.35c.45-.99,1.09-1.77,1.92-2.34,.83-.57,1.82-.86,2.97-.86s2.16,.28,2.96,.85,1.4,1.35,1.81,2.33c.41,.99,.62,2.11,.62,3.36s-.21,2.35-.62,3.34c-.41,.99-1.01,1.78-1.81,2.36-.8,.58-1.78,.87-2.94,.87Zm.15,5.52c-.65,0-1.29-.1-1.91-.3-.62-.2-1.19-.5-1.71-.9s-.95-.91-1.29-1.52l1.87-.99c.31,.61,.74,1.05,1.31,1.32,.56,.28,1.14,.41,1.74,.41,.79,0,1.45-.14,1.97-.43,.52-.29,.91-.71,1.16-1.28,.25-.57,.37-1.27,.36-2.12v-3.39h.24v-9.08h1.82v12.5c0,.34,0,.66-.03,.98-.02,.31-.06,.62-.12,.93-.16,.88-.48,1.61-.95,2.18-.48,.57-1.09,1-1.84,1.28-.75,.28-1.62,.42-2.61,.42Zm.1-7.39c.84,0,1.52-.2,2.06-.6,.54-.4,.93-.96,1.19-1.67s.39-1.52,.39-2.42-.13-1.73-.39-2.43c-.26-.7-.65-1.25-1.18-1.64-.53-.4-1.2-.59-2.01-.59s-1.54,.21-2.09,.62c-.55,.41-.95,.97-1.22,1.68-.26,.71-.4,1.5-.4,2.37s.13,1.68,.4,2.39,.67,1.27,1.21,1.68,1.22,.62,2.03,.62Z" style="fill:#fff;"/><path d="M357.41,540.87c-.87,0-1.65-.15-2.34-.44-.69-.29-1.27-.72-1.72-1.26-.45-.55-.74-1.19-.88-1.94l1.56-.25c.2,.77,.61,1.37,1.24,1.81,.63,.43,1.36,.65,2.21,.65,.55,0,1.05-.09,1.49-.26s.8-.42,1.06-.74c.26-.32,.39-.71,.39-1.15,0-.27-.05-.51-.14-.7-.09-.2-.22-.36-.38-.5-.16-.14-.34-.26-.55-.35-.2-.1-.42-.18-.64-.24l-3.12-.93c-.34-.1-.67-.23-.99-.39-.32-.16-.6-.35-.85-.59-.25-.24-.45-.52-.6-.85-.15-.33-.22-.72-.22-1.18,0-.72,.19-1.34,.57-1.86,.38-.51,.89-.91,1.53-1.18,.65-.27,1.37-.41,2.18-.4,.82,0,1.56,.15,2.21,.44s1.19,.7,1.62,1.23c.43,.53,.72,1.17,.86,1.91l-1.61,.28c-.08-.5-.27-.93-.57-1.29-.29-.36-.66-.64-1.09-.83s-.92-.3-1.44-.3c-.5,0-.95,.07-1.35,.24-.4,.16-.72,.39-.96,.68-.24,.29-.36,.63-.36,1.01s.11,.68,.32,.91c.22,.23,.48,.41,.79,.54,.31,.13,.62,.24,.92,.33l2.33,.67c.27,.07,.57,.18,.92,.31,.35,.13,.69,.31,1.02,.55s.6,.55,.82,.94c.22,.39,.32,.88,.32,1.47s-.12,1.11-.35,1.57-.56,.84-.98,1.15c-.42,.31-.91,.54-1.46,.71s-1.15,.24-1.78,.24Z" style="fill:#9de8b0;"/><path d="M367.76,540.87c-.9,0-1.69-.2-2.36-.6-.67-.4-1.19-.96-1.57-1.67s-.56-1.55-.56-2.51,.18-1.87,.55-2.61c.37-.73,.88-1.3,1.54-1.7s1.44-.6,2.32-.6,1.71,.21,2.36,.64c.65,.43,1.14,1.03,1.46,1.82,.33,.79,.47,1.73,.42,2.81h-1.53v-.54c-.02-1.13-.25-1.97-.69-2.53-.44-.56-1.1-.84-1.97-.84-.94,0-1.65,.3-2.13,.9s-.73,1.46-.73,2.58,.24,1.92,.73,2.52c.49,.6,1.18,.89,2.08,.89,.61,0,1.13-.14,1.58-.42,.45-.28,.8-.68,1.05-1.2l1.45,.5c-.36,.81-.89,1.44-1.61,1.88-.72,.44-1.52,.67-2.41,.67Zm-3.39-4.42v-1.22h6.78v1.22h-6.78Z" style="fill:#9de8b0;"/><path d="M377.68,540.87c-.93,0-1.72-.21-2.37-.62-.65-.42-1.14-.99-1.48-1.72-.34-.73-.52-1.56-.53-2.5,.01-.96,.19-1.8,.54-2.53,.35-.73,.85-1.3,1.5-1.7,.65-.41,1.44-.61,2.35-.61,.97,0,1.8,.24,2.5,.71,.7,.48,1.17,1.13,1.41,1.96l-1.5,.45c-.19-.53-.51-.95-.94-1.24s-.93-.44-1.49-.44c-.63,0-1.15,.15-1.56,.44s-.71,.69-.91,1.21-.3,1.1-.31,1.76c.01,1.02,.25,1.84,.71,2.47,.46,.63,1.15,.94,2.06,.94,.6,0,1.1-.14,1.5-.41,.4-.27,.7-.67,.9-1.19l1.53,.4c-.32,.86-.81,1.51-1.49,1.96s-1.49,.68-2.44,.68Z" style="fill:#9de8b0;"/><path d="M387.01,540.87c-.91,0-1.7-.21-2.36-.62-.66-.41-1.17-.99-1.53-1.72-.36-.73-.54-1.57-.54-2.52s.18-1.81,.54-2.53c.36-.72,.88-1.29,1.54-1.7s1.44-.61,2.34-.61,1.71,.21,2.37,.62c.66,.41,1.17,.98,1.53,1.71,.35,.73,.53,1.57,.53,2.51s-.18,1.8-.54,2.53c-.36,.73-.87,1.3-1.53,1.71-.66,.41-1.45,.62-2.36,.62Zm0-1.44c.95,0,1.66-.32,2.12-.95,.46-.63,.7-1.46,.7-2.46s-.24-1.86-.71-2.48c-.47-.62-1.18-.92-2.12-.92-.64,0-1.17,.14-1.58,.43-.41,.29-.72,.69-.93,1.2-.2,.51-.31,1.1-.31,1.77,0,1.03,.24,1.86,.71,2.48,.48,.62,1.18,.93,2.1,.93Z" style="fill:#9de8b0;"/><path d="M393.3,540.61v-9.18h1.36v2.46h.17v6.72h-1.53Zm6.54,0v-4.6c0-.44-.04-.86-.11-1.26-.08-.4-.21-.76-.4-1.08s-.44-.57-.77-.76c-.32-.19-.72-.28-1.21-.28-.38,0-.72,.06-1.03,.19-.31,.13-.57,.32-.79,.58s-.39,.59-.51,.98c-.12,.39-.18,.86-.18,1.39l-.99-.31c0-.89,.16-1.65,.48-2.29,.32-.64,.77-1.13,1.35-1.47,.58-.34,1.27-.51,2.05-.51,.6,0,1.1,.09,1.52,.28,.42,.19,.77,.44,1.05,.74,.28,.31,.5,.65,.65,1.04,.16,.38,.27,.77,.34,1.16,.06,.39,.1,.77,.1,1.12v5.07h-1.53Z" style="fill:#9de8b0;"/><path d="M407.1,540.87c-.86,0-1.59-.21-2.2-.64s-1.08-1.01-1.42-1.74-.5-1.56-.5-2.47,.17-1.74,.5-2.47c.33-.73,.8-1.31,1.42-1.73s1.34-.63,2.19-.63,1.6,.21,2.18,.63c.59,.42,1.04,.99,1.34,1.73,.3,.73,.45,1.56,.45,2.48s-.15,1.74-.45,2.47c-.3,.73-.75,1.31-1.34,1.74s-1.31,.64-2.18,.64Zm.19-1.39c.62,0,1.12-.15,1.52-.45,.4-.3,.69-.71,.88-1.23,.19-.52,.29-1.12,.29-1.79s-.1-1.28-.29-1.8c-.19-.52-.48-.92-.87-1.21-.39-.29-.89-.44-1.49-.44s-1.14,.15-1.54,.46c-.41,.31-.71,.72-.9,1.24s-.29,1.11-.29,1.75,.1,1.24,.3,1.76c.2,.52,.5,.94,.9,1.25,.4,.31,.9,.46,1.5,.46Zm2.69,1.13v-6.76h-.17v-5.48h1.52v12.24h-1.35Z" style="fill:#9de8b0;"/><path d="M416.32,540.87c-.69,0-1.26-.13-1.72-.38s-.81-.58-1.05-1c-.24-.41-.35-.87-.35-1.36s.09-.9,.28-1.25c.18-.35,.44-.65,.78-.88,.33-.23,.73-.42,1.2-.56,.44-.12,.93-.22,1.47-.31s1.09-.17,1.65-.24c.56-.07,1.07-.14,1.56-.21l-.54,.31c.02-.82-.15-1.42-.49-1.81s-.93-.59-1.77-.59c-.56,0-1.04,.13-1.46,.38s-.71,.66-.88,1.23l-1.44-.43c.22-.8,.65-1.44,1.28-1.9s1.47-.69,2.51-.69c.83,0,1.55,.15,2.15,.45,.6,.3,1.03,.75,1.29,1.35,.13,.28,.21,.59,.25,.92,.03,.33,.05,.68,.05,1.04v5.68h-1.34v-2.2l.31,.2c-.35,.74-.83,1.3-1.45,1.68s-1.38,.57-2.27,.57Zm.23-1.27c.54,0,1.02-.1,1.42-.29,.4-.2,.72-.45,.96-.77s.4-.67,.48-1.05c.08-.28,.13-.6,.14-.95,0-.35,.01-.62,.01-.8l.53,.23c-.49,.07-.98,.13-1.45,.2s-.93,.13-1.35,.2c-.42,.07-.81,.15-1.15,.25-.25,.08-.48,.18-.7,.31-.22,.12-.39,.28-.53,.48-.13,.2-.2,.44-.2,.73,0,.25,.06,.49,.19,.71s.33,.41,.6,.55c.27,.14,.62,.21,1.06,.21Z" style="fill:#9de8b0;"/><path d="M423.27,540.61v-9.18h1.35v2.22l-.22-.29c.11-.28,.25-.54,.42-.78,.17-.24,.37-.43,.58-.59,.24-.19,.51-.34,.81-.44,.3-.1,.61-.16,.92-.18,.31-.02,.6,0,.88,.06v1.42c-.32-.08-.67-.11-1.05-.07-.38,.04-.73,.18-1.05,.42-.29,.21-.52,.46-.68,.76-.16,.3-.27,.62-.34,.97s-.09,.7-.09,1.07v4.61h-1.52Z" style="fill:#9de8b0;"/><path d="M430.72,544.69l1.78-4.83,.03,1.43-4.01-9.86h1.59l3.15,7.93h-.54l2.95-7.93h1.54l-5,13.26h-1.47Z" style="fill:#9de8b0;"/><path d="M442.17,540.61v-12.5h1.51v12.5h-1.51Z" style="fill:#9de8b0;"/><path d="M446.4,529.81v-1.56h1.51v1.56h-1.51Zm0,10.8v-9.18h1.51v9.18h-1.51Z" style="fill:#9de8b0;"/><path d="M449.78,532.68v-1.25h5.48v1.25h-5.48Zm1.56,7.93v-9.68c0-.24,.01-.48,.03-.73,.02-.25,.07-.49,.15-.72,.08-.24,.21-.45,.39-.65,.21-.23,.44-.4,.69-.5,.25-.1,.5-.16,.76-.18,.26-.02,.5-.03,.73-.03h1.16v1.26h-1.08c-.45,0-.78,.11-1,.33-.22,.22-.33,.55-.33,.99v9.92h-1.51Z" style="fill:#9de8b0;"/><path d="M460.26,540.87c-.9,0-1.69-.2-2.36-.6-.67-.4-1.19-.96-1.57-1.67s-.56-1.55-.56-2.51,.18-1.87,.55-2.61c.37-.73,.88-1.3,1.54-1.7s1.44-.6,2.32-.6,1.71,.21,2.36,.64c.65,.43,1.14,1.03,1.46,1.82,.33,.79,.47,1.73,.42,2.81h-1.53v-.54c-.02-1.13-.25-1.97-.69-2.53-.44-.56-1.1-.84-1.97-.84-.93,0-1.65,.3-2.13,.9s-.73,1.46-.73,2.58,.24,1.92,.73,2.52c.49,.6,1.18,.89,2.08,.89,.61,0,1.13-.14,1.58-.42,.45-.28,.8-.68,1.05-1.2l1.45,.5c-.36,.81-.89,1.44-1.61,1.88-.72,.44-1.52,.67-2.41,.67Zm-3.39-4.42v-1.22h6.78v1.22h-6.78Z" style="fill:#9de8b0;"/></g></g></g><g id="uuid-26f523b6-3e61-4fbd-9db1-ed317112f274"><g id="uuid-8e49e861-d653-4e30-8333-0b84d1a3b674" style="isolation:isolate;"><g><path d="M172.9,785.05l-.24-1.99c.65-.08,65.9-8.24,150.08-38.91,77.66-28.3,187.78-82.1,271.38-177.69l1.51,1.32c-37.04,42.36-82.32,80.15-134.57,112.31-41.79,25.72-88.11,47.91-137.67,65.97-84.39,30.74-149.82,38.92-150.47,39Z" style="fill:#a8b1bd;"/><polygon points="597.1 570.76 598.81 562.56 590.85 565.17 597.1 570.76" style="fill:#a8b1bd;"/></g></g><g><rect x="173" y="84" width="67.97" height="2" style="fill:#a8b1bd;"/><polygon points="239.75 89.19 247 85 239.75 80.81 239.75 89.19" style="fill:#a8b1bd;"/></g><g><rect x="261.58" y="198.59" width="67.53" height="2" transform="translate(8.79 411.6) rotate(-70.55)" style="fill:#a8b1bd;"/><polygon points="280.56 228.87 282.09 237.1 288.46 231.66 280.56 228.87" style="fill:#a8b1bd;"/></g><g><rect x="178.07" y="432.61" width="67.53" height="2" transform="translate(-267.57 488.95) rotate(-70.55)" style="fill:#a8b1bd;"/><polygon points="197.05 462.9 198.58 471.13 204.95 465.69 197.05 462.9" style="fill:#a8b1bd;"/></g><g><rect x="94.69" y="666.61" width="67.52" height="2" transform="translate(-543.83 566.4) rotate(-70.55)" style="fill:#a8b1bd;"/><polygon points="113.66 696.9 115.2 705.13 121.56 699.69 113.66 696.9" style="fill:#a8b1bd;"/></g><g><path d="M598.64,416.06c-.23-.22-23.61-22.33-66.29-45.08-39.38-20.99-103.71-46.83-186.56-50.73l.09-2c83.25,3.92,147.9,29.9,187.47,51,42.9,22.88,66.43,45.14,66.66,45.36l-1.38,1.45Z" style="fill:#a8b1bd;"/><polygon points="347.28 315.18 339.82 319 346.85 323.55 347.28 315.18" style="fill:#a8b1bd;"/></g><g><path d="M634.7,401.6c-.11-.41-11.47-41.58-43.27-96.1-29.34-50.31-82.6-122.61-169.64-181.32l1.12-1.66c87.39,58.94,140.84,131.52,170.29,182.03,31.92,54.74,43.33,96.11,43.44,96.52l-1.93,.52Z" style="fill:#a8b1bd;"/><polygon points="425.68 120.64 417.33 120 420.96 127.55 425.68 120.64" style="fill:#a8b1bd;"/></g><g><rect x="165.26" y="146.29" width="2" height="105.91" transform="translate(-85.88 137.9) rotate(-36.48)" style="fill:#a8b1bd;"/><polygon points="193.65 243.33 201.33 246.67 200.39 238.34 193.65 243.33" style="fill:#a8b1bd;"/></g><g><path d="M132.02,465.77c-8.02-22.99-48.02-145.22-48.02-293.85h2c0,148.32,39.91,270.26,47.91,293.2l-1.89,.66Z" style="fill:#a8b1bd;"/><polygon points="128.62 465.68 135 471.11 136.51 462.87 128.62 465.68" style="fill:#a8b1bd;"/></g></g></svg>