<svg width="154" height="156" viewBox="0 0 154 156" fill="none" xmlns="http://www.w3.org/2000/svg">
<path d="M76.3172 2.51505C76.2921 3.07594 76.2921 3.63683 76.3172 4.18936C35.5507 4.76699 2.56788 38.1444 2.56788 79.0981C2.56788 120.052 36.1359 154.015 77.3874 154.015C118.639 154.015 152.207 120.403 152.207 79.0981C152.207 39.6597 121.607 7.2617 82.9388 4.407C82.989 3.86285 83.0141 3.29358 83.0057 2.73269C122.568 5.62925 153.879 38.7555 153.879 79.0981C153.879 121.333 119.567 155.689 77.3874 155.689C35.2079 155.689 0.895752 121.333 0.895752 79.0981C0.895752 37.2235 34.631 3.10105 76.3089 2.51505H76.3172Z" fill="#3AA655"/>
<path d="M80.6229 3.39403L74.6451 6.56686V4.18934V2.6071V0.229584L80.6229 3.39403Z" fill="#3AA655"/>
</svg>
